<svg xmlns="http://www.w3.org/2000/svg" x="0px" y="0px"
width="64" height="64"
viewBox="0 0 172 172"
style=" fill:#000000;"><g fill="none" fill-rule="nonzero" stroke="none" stroke-width="1" stroke-linecap="butt" stroke-linejoin="miter" stroke-miterlimit="10" stroke-dasharray="" stroke-dashoffset="0" font-family="none" font-weight="none" font-size="none" text-anchor="none" style="mix-blend-mode: normal"><path d="M0,172v-172h172v172z" fill="none"></path><g fill="#3498db"><path d="M61.55005,0c-11.48486,0 -25.37378,8.03101 -30.34985,17.57373c-0.43042,0.82934 -0.39892,1.82666 0.08398,2.63501c0.48291,0.80835 1.36475,1.29126 2.30957,1.29126h16.50293l0.39893,0.58789c2.98145,4.52466 3.01294,10.35108 0,14.89673l-0.43042,0.64038h-16.52392c-0.94483,0 -1.79517,0.48291 -2.28858,1.29126c-0.50391,0.80835 -0.5354,1.80566 -0.10498,2.63501c2.09961,4.03125 5.77392,7.78955 10.26709,10.80249c-5.04956,3.30689 -8.81836,8.49292 -10.26709,14.78125l-3.09692,13.48999h-14.61328c-4.44067,0 -8.0625,3.62183 -8.0625,8.0625v5.375c0,4.44067 3.62183,8.0625 8.0625,8.0625h1.25977c-1.27026,2.45654 -2.25708,5.07056 -2.91846,7.76855l-0.0105,0.0105v0.021c-0.67187,2.71899 -1.01831,5.51147 -1.01831,8.32495v18.8125c0,4.37768 2.1311,8.23047 5.375,10.68701v13.50049c0,1.96314 0.5669,3.78979 1.49072,5.375h-14.92822c-1.49072,0 -2.6875,1.20728 -2.6875,2.6875c0,1.48022 1.19678,2.6875 2.6875,2.6875h166.625c1.49072,0 2.6875,-1.20728 2.6875,-2.6875c0,-1.48022 -1.19678,-2.6875 -2.6875,-2.6875h-14.93872c0.93433,-1.58521 1.50122,-3.41186 1.50122,-5.375v-13.50049c3.2439,-2.45654 5.375,-6.30933 5.375,-10.68701v-18.8125c0,-5.60596 -1.37524,-11.16992 -3.94727,-16.125h1.25977c4.44067,0 8.0625,-3.62183 8.0625,-8.0625v-5.375c0,-4.44067 -3.62183,-8.0625 -8.0625,-8.0625h-14.61328l-3.09692,-13.48999c-2.55102,-11.04395 -12.25122,-18.76001 -23.56811,-18.76001h-37.59351c1.15478,-1.72168 2.1731,-3.51685 3.15991,-5.375h40.94238c7.41162,0 13.4375,-6.01538 13.4375,-13.4375c0,-7.42212 -6.02588,-13.4375 -13.4375,-13.4375h-40.94238c-4.48267,-8.35645 -10.04663,-16.125 -21.30054,-16.125zM61.55005,5.375c8.11499,0 12.32471,5.16504 17.30078,14.67627c0.46191,0.88184 1.37524,1.44873 2.39355,1.44873h42.54858c4.45117,0 8.0625,3.63233 8.0625,8.0625c0,4.43018 -3.61133,8.0625 -8.0625,8.0625h-42.54858c-1.01831,0 -1.93164,0.5669 -2.39355,1.44873c-1.98413,3.82129 -3.86328,6.9602 -5.9104,9.30127c-3.06543,3.51685 -6.52978,5.375 -11.39038,5.375c-4.57715,0 -9.76318,-1.6377 -14.38233,-4.16772c-3.27539,-1.80566 -6.23584,-4.08374 -8.46142,-6.58228h12.81811c0.91333,0 1.74268,-0.45142 2.22559,-1.20728l1.23877,-1.85815c4.18872,-6.31982 4.18872,-14.4873 -0.03149,-20.80713l-1.20728,-1.79517c-0.48291,-0.75586 -1.31226,-1.20728 -2.22559,-1.20728h-12.76562c5.396,-5.99439 15.0437,-10.75 22.79126,-10.75zM67.1875,18.8125c-1.49072,0 -2.6875,1.20728 -2.6875,2.6875v16.125c0,1.48022 1.19678,2.6875 2.6875,2.6875c1.49072,0 2.6875,-1.20728 2.6875,-2.6875v-16.125c0,-1.48022 -1.19678,-2.6875 -2.6875,-2.6875zM75.21851,53.75h42.06567c8.81836,0 16.34546,5.99439 18.32959,14.59229l3.2019,13.83642c0.74536,3.30689 2.1731,6.34082 4.18872,9.05982l1.37524,1.84766l-4.70312,2.28857c-1.82666,0.90283 -3.86328,1.37524 -5.8999,1.37524h-2.33057c-1.28076,-7.61108 -7.90503,-13.4375 -15.88354,-13.4375c-7.97852,0 -14.59228,5.82642 -15.88354,13.4375h-61.20361c-2.04712,0 -4.10473,-0.48291 -5.95239,-1.39624l-4.8186,-2.38306l1.29126,-1.73218c2.01563,-2.71899 3.44336,-5.75293 4.18872,-9.05982l3.20191,-13.83642c1.37524,-5.85791 5.29102,-10.52954 10.45605,-12.87061c4.78711,2.28858 9.94165,3.65332 14.70776,3.65332c5.9104,0 10.2356,-2.1206 13.66846,-5.375zM80.40454,64.5c-1.49072,0 -2.6875,1.20728 -2.6875,2.6875c0,1.48022 1.19678,2.6875 2.6875,2.6875h11.42188c1.49072,0 2.6875,-1.20728 2.6875,-2.6875c0,-1.48022 -1.19678,-2.6875 -2.6875,-2.6875zM13.4375,86h12.56616c-0.39892,0.69287 -0.81885,1.37524 -1.31226,2.01563l-6.55078,8.73438h-4.70312c-1.48022,0 -2.6875,-1.20728 -2.6875,-2.6875v-5.375c0,-1.48022 1.20728,-2.6875 2.6875,-2.6875zM145.99634,86h12.56616c1.48022,0 2.6875,1.20728 2.6875,2.6875v5.375c0,1.48022 -1.20728,2.6875 -2.6875,2.6875h-4.70312l-6.55078,-8.73437c-0.49341,-0.64038 -0.91333,-1.32275 -1.31226,-2.01562zM115.5625,88.6875c4.99707,0 9.16479,3.44336 10.37207,8.0625h-20.74414c1.20728,-4.61914 5.375,-8.0625 10.37207,-8.0625zM24.41846,97.33789l5.72143,2.83447c2.58252,1.28076 5.46948,1.95264 8.33545,1.95264h95.30127c2.85547,0 5.71094,-0.66138 8.27246,-1.92114l5.61646,-2.73999l2.29907,3.05493c1.76367,2.34107 3.13892,4.94458 4.12573,7.69507l-21.47901,3.56934c-5.20703,0.87134 -8.98633,5.33301 -8.98633,10.61353v1.22827c0,2.96045 2.41455,5.375 5.375,5.375h26.875v8.0625c0,4.43018 -3.63232,8.0625 -8.0625,8.0625h-123.625c-4.43017,0 -8.0625,-3.63232 -8.0625,-8.0625v-8.0625h26.875c2.96045,0 5.375,-2.41455 5.375,-5.375v-1.22827c0,-5.28052 -3.7793,-9.74219 -8.98633,-10.61353l-21.479,-3.56934c0.98682,-2.75049 2.37256,-5.3645 4.12573,-7.69507zM16.52393,113.4209l21.98291,3.66382c2.60352,0.44092 4.49316,2.677 4.49316,5.31201v1.22827h-26.875v-5.375c0,-1.6167 0.13647,-3.2334 0.39893,-4.8291zM155.46558,113.4209c0.27295,1.5957 0.40942,3.2124 0.40942,4.8291v5.375h-26.875v-1.22827c0,-2.63501 1.88965,-4.87109 4.49316,-5.31201zM59.125,118.25c-1.49072,0 -2.6875,1.20728 -2.6875,2.6875v5.375c0,1.48022 1.19678,2.6875 2.6875,2.6875c1.49072,0 2.6875,-1.20728 2.6875,-2.6875v-5.375c0,-1.48022 -1.19678,-2.6875 -2.6875,-2.6875zM72.5625,118.25c-1.49072,0 -2.6875,1.20728 -2.6875,2.6875v5.375c0,1.48022 1.19678,2.6875 2.6875,2.6875c1.49072,0 2.6875,-1.20728 2.6875,-2.6875v-5.375c0,-1.48022 -1.19678,-2.6875 -2.6875,-2.6875zM86,118.25c-1.49072,0 -2.6875,1.20728 -2.6875,2.6875v5.375c0,1.48022 1.19678,2.6875 2.6875,2.6875c1.49072,0 2.6875,-1.20728 2.6875,-2.6875v-5.375c0,-1.48022 -1.19678,-2.6875 -2.6875,-2.6875zM99.4375,118.25c-1.49072,0 -2.6875,1.20728 -2.6875,2.6875v5.375c0,1.48022 1.19678,2.6875 2.6875,2.6875c1.49072,0 2.6875,-1.20728 2.6875,-2.6875v-5.375c0,-1.48022 -1.19678,-2.6875 -2.6875,-2.6875zM112.875,118.25c-1.49072,0 -2.6875,1.20728 -2.6875,2.6875v5.375c0,1.48022 1.19678,2.6875 2.6875,2.6875c1.49072,0 2.6875,-1.20728 2.6875,-2.6875v-5.375c0,-1.48022 -1.19678,-2.6875 -2.6875,-2.6875zM23.96704,134.375c-1.49072,0 -2.6875,1.20728 -2.6875,2.6875c0,1.48022 1.19678,2.6875 2.6875,2.6875h11.42188c1.49072,0 2.6875,-1.20728 2.6875,-2.6875c0,-1.48022 -1.19678,-2.6875 -2.6875,-2.6875zM45.46704,134.375c-1.49072,0 -2.6875,1.20728 -2.6875,2.6875c0,1.48022 1.19678,2.6875 2.6875,2.6875h81.29688c1.49072,0 2.6875,-1.20728 2.6875,-2.6875c0,-1.48022 -1.19678,-2.6875 -2.6875,-2.6875zM136.84204,134.375c-1.49072,0 -2.6875,1.20728 -2.6875,2.6875c0,1.48022 1.19678,2.6875 2.6875,2.6875h11.42188c1.49072,0 2.6875,-1.20728 2.6875,-2.6875c0,-1.48022 -1.19678,-2.6875 -2.6875,-2.6875zM21.5,150.5h16.125v10.75c0,2.96045 -2.41455,5.375 -5.375,5.375h-5.375c-2.96045,0 -5.375,-2.41455 -5.375,-5.375zM43,150.5h86v10.75c0,1.96314 0.5669,3.78979 1.50122,5.375h-89.00244c0.93433,-1.58521 1.50122,-3.41186 1.50122,-5.375zM134.375,150.5h16.125v10.75c0,2.96045 -2.41455,5.375 -5.375,5.375h-5.375c-2.96045,0 -5.375,-2.41455 -5.375,-5.375z"></path></g></g></svg>